<svg xmlns="http://www.w3.org/2000/svg" width="34.039" height="35.277" viewBox="0 0 34.039 35.277">    <defs>        <style>            .cls-1,.cls-3{fill:#fed453}.cls-2{fill:#4f3f68}.cls-3{stroke:#4f3f68;stroke-linecap:round;stroke-linejoin:round}.cls-4{fill:#f56c73}        </style>    </defs>    <g id="Group_4188" data-name="Group 4188" transform="translate(-270.003 561.99)">        <g id="Group_4186" data-name="Group 4186">            <g id="Path_4178" data-name="Path 4178">                <path id="Path_4509" d="M286.648-561.392L270.9-552.71a.769.769 0 0 0-.4.674v15.378a.769.769 0 0 0 .4.674l15.745 8.674a.765.765 0 0 0 .742 0l15.752-8.678a.769.769 0 0 0 .4-.674v-15.38a.764.764 0 0 0-.4-.672l-15.752-8.68a.765.765 0 0 0-.739.002z" class="cls-1" data-name="Path 4509"/>                <path id="Path_4510" d="M287.02-526.713a1.269 1.269 0 0 1-.614-.159l-15.744-8.675a1.27 1.27 0 0 1-.659-1.109v-15.38a1.273 1.273 0 0 1 .66-1.112l15.743-8.682a1.261 1.261 0 0 1 1.226 0l15.751 8.68a1.261 1.261 0 0 1 .659 1.11v15.38a1.264 1.264 0 0 1-.661 1.112l-15.75 8.678a1.263 1.263 0 0 1-.611.157zm0-34.276a.262.262 0 0 0-.129.034l-15.745 8.682a.273.273 0 0 0-.142.238v15.376a.27.27 0 0 0 .141.235l15.746 8.676a.262.262 0 0 0 .257 0l15.753-8.679a.27.27 0 0 0 .142-.236v-15.38a.264.264 0 0 0-.138-.232l-15.756-8.682a.264.264 0 0 0-.128-.032zm-.373-.4z" class="cls-2" data-name="Path 4510"/>            </g>            <g id="Group_4187" data-name="Group 4187">                <g id="Path_4181" data-name="Path 4181">                    <path id="Path_4512" d="M303.254-552.6l-16.288 9.1v16.286" class="cls-1" data-name="Path 4512"/>                    <path id="Path_4513" d="M286.966-526.719a.5.5 0 0 1-.5-.5v-16.286a.5.5 0 0 1 .256-.436l16.288-9.1a.5.5 0 0 1 .68.193.5.5 0 0 1-.192.681l-16.032 8.956v15.993a.5.5 0 0 1-.5.499z" class="cls-2" data-name="Path 4513"/>                </g>                <g id="Path_4179" data-name="Path 4179">                    <path id="Path_4514" d="M303.252-552.6l-16.286 9.1-16.286-9.1" class="cls-1" data-name="Path 4514"/>                    <path id="Path_4515" d="M286.966-543.005a.5.5 0 0 1-.244-.063l-16.286-9.1a.5.5 0 0 1-.193-.681.5.5 0 0 1 .681-.193l16.042 8.964 16.042-8.964a.5.5 0 0 1 .68.193.5.5 0 0 1-.192.681l-16.286 9.1a.5.5 0 0 1-.244.063z" class="cls-2" data-name="Path 4515"/>                </g>            </g>            <g id="Path_4182" data-name="Path 4182">                <path id="Path_4516" d="M278.466-541.231a.5.5 0 0 1-.5-.5v-6.226a.5.5 0 0 1 .266-.442l16.811-8.862a.5.5 0 0 1 .676.209.5.5 0 0 1-.209.676l-16.544 8.721v5.924a.5.5 0 0 1-.5.5z" class="cls-2" data-name="Path 4516"/>            </g>            <g id="Path_4183" data-name="Path 4183">                <path id="Path_4517" d="M294.648-541.429l-4.362 2.3a.656.656 0 0 1-.886-.279.654.654 0 0 1-.072-.3v-1.454a.655.655 0 0 1 .348-.578l4.362-2.3a.656.656 0 0 1 .884.278.637.637 0 0 1 .074.3V-542a.66.66 0 0 1-.348.571z" class="cls-4" data-name="Path 4517"/>            </g>        </g>    </g></svg>