<svg xmlns="http://www.w3.org/2000/svg" width="24.897" height="23.432" viewBox="0 0 24.897 23.432">    <defs>        <style>            .cls-1{fill:#fed453}.cls-2{fill:#4f3f68}.cls-3{fill:#fff}        </style>    </defs>    <g id="Group_4131" data-name="Group 4131" transform="translate(-142 553)">        <g id="Rectangle_1097" data-name="Rectangle 1097">            <g id="Group_4471" data-name="Group 4471">                <rect id="Rectangle_2664" width="23.432" height="23.432" class="cls-1" data-name="Rectangle 2664" rx="4" transform="translate(142 -553)"/>            </g>            <g id="Group_4472" data-name="Group 4472">                <path id="Path_4494" d="M161.432-529.568H146a4 4 0 0 1-4-4V-549a4 4 0 0 1 4-4h15.432a4 4 0 0 1 4 4v15.432a4 4 0 0 1-4 4zM146-552a3 3 0 0 0-3 3v15.432a3 3 0 0 0 3 3h15.432a3 3 0 0 0 3-3V-549a3 3 0 0 0-3-3z" class="cls-2" data-name="Path 4494"/>            </g>        </g>        <g id="Path_4137" data-name="Path 4137">            <path id="Path_4495" d="M164.334-547.74h-16.11a.5.5 0 0 1-.5-.5.5.5 0 0 1 .5-.5h16.11a.5.5 0 0 1 .5.5.5.5 0 0 1-.5.5z" class="cls-2" data-name="Path 4495"/>        </g>        <g id="Rectangle_1098" data-name="Rectangle 1098">            <g id="Group_4473" data-name="Group 4473">                <rect id="Rectangle_2665" width="11.716" height="7.323" class="cls-3" data-name="Rectangle 2665" rx="3.661" transform="translate(155.181 -544.945)"/>            </g>            <g id="Group_4474" data-name="Group 4474">                <path id="Path_4496" d="M163.236-537.622h-4.394a3.665 3.665 0 0 1-3.661-3.661 3.665 3.665 0 0 1 3.661-3.662h4.394a3.665 3.665 0 0 1 3.661 3.661 3.666 3.666 0 0 1-3.661 3.662zm-4.394-6.323a2.663 2.663 0 0 0-2.661 2.661 2.664 2.664 0 0 0 2.661 2.662h4.394a2.663 2.663 0 0 0 2.661-2.661 2.664 2.664 0 0 0-2.661-2.662z" class="cls-2" data-name="Path 4496"/>            </g>        </g>        <g id="Ellipse_227" data-name="Ellipse 227">            <circle id="Ellipse_561" cx="1.465" cy="1.465" r="1.465" class="cls-2" data-name="Ellipse 561" transform="translate(158.11 -542.748)"/>        </g>    </g></svg>